<svg width="1080" height="799" viewBox="0 0 1080 799" fill="none" xmlns="http://www.w3.org/2000/svg">
<path d="M21.8206 792.5L449.338 667.02V778.76H644.669L653.375 765.078L662.461 778.76H874.827L891.483 477.366L903.596 464.444L914.953 212.078H1021.33L1080 104.899L865.363 0L793.817 57.0103L705.237 296.453L556.845 300.254L433.791 419.716L17.1218 783.937C13.0862 787.465 16.6775 794.009 21.8206 792.5Z" fill="black"/>
<path d="M87.0176 747.955L458.991 633.447L405.304 480.77L87.0176 747.955Z" fill="#F9C338" stroke="#F9C338" stroke-width="2"/>
<path d="M493.505 404.43L420.645 473.135L474.331 625.812V751.771H543.357V621.995L608.548 507.487L493.505 404.43Z" fill="#F9C338" stroke="#F9C338" stroke-width="2"/>
<path d="M631.553 503.667L562.527 618.175L677.571 602.908V751.768H758.101L761.936 591.457L873.144 442.596L888.426 182.399H1004.53L1044.18 114.751L873.144 35.8281L817.628 75.2894L727.423 328.088H570.197L505.006 392.976L631.553 503.667Z" fill="#F9C338" stroke="#F9C338" stroke-width="2"/>
<path d="M558.691 751.768V633.443L635.387 621.992L623.883 660.162V751.768H558.691Z" fill="#DE9200" stroke="#DE9200" stroke-width="2"/>
<path d="M777.277 597.473L788.104 751.764H850.138L861.642 484.578L777.277 597.473Z" fill="#DE9200" stroke="#DE9200" stroke-width="2"/>
</svg>
